<?xml version="1.0" encoding="utf-8"?>
<!-- Generator: Adobe Illustrator 26.1.0, SVG Export Plug-In . SVG Version: 6.00 Build 0)  -->
<svg version="1.1" id="Layer_1" xmlns="http://www.w3.org/2000/svg" xmlns:xlink="http://www.w3.org/1999/xlink" x="0px" y="0px"
	 viewBox="0 0 600 600" style="enable-background:new 0 0 600 600;" xml:space="preserve">
<style type="text/css">
	.st0{fill:none;stroke:#FAFAFA;stroke-width:56;stroke-miterlimit:10;}
	.st1{fill:#FAFAFA;}
	.st2{display:none;}
	.st3{font-family:'MyriadPro-Semibold';}
	.st4{font-size:302px;}
</style>
<path class="st0" d="M547.5,86v427.5c0,12.15-9.85,22-22,22H200.41c-8.23,0-15.83-4.39-19.93-11.52L55.79,307.43
	c-2.48-4.31-2.49-9.62-0.02-13.94L180.48,75.58C184.58,68.42,192.2,64,200.45,64H525.5C537.65,64,547.5,73.85,547.5,86z"/>
<g>
	<path class="st1" d="M262.4,211.79c11.78-2.42,33.22-4.53,54.36-4.53c27.18,0,44.39,3.62,57.98,12.99
		c12.68,7.55,21.14,20.84,21.14,38.35c0,18.72-11.78,35.64-33.82,43.79v0.91c21.44,5.44,41.07,22.35,41.07,50.13
		c0,18.12-7.85,32.31-19.33,42.28c-14.5,12.38-38.35,18.72-75.8,18.72c-20.54,0-35.94-1.51-45.6-2.72V211.79z M299.24,292.12h19.03
		c25.97,0,40.17-12.08,40.17-29.29c0-19.33-14.5-28.09-38.05-28.09c-10.87,0-17.21,0.6-21.14,1.51V292.12z M299.24,385.44
		c4.83,0.91,11.17,0.91,19.63,0.91c23.86,0,45.3-8.76,45.3-33.82c0-23.86-20.84-33.52-46.51-33.52h-18.42V385.44z"/>
</g>
<text transform="matrix(1 0 0 1 240.2173 414.6805)" class="st2 st3 st4">B</text>
</svg>
